<svg xmlns="http://www.w3.org/2000/svg" width="184" height="48" fill="none">
    <path fill="#000" d="M174.233 32.64c-1.56 0-2.976-.396-4.248-1.188-1.248-.792-2.244-1.86-2.988-3.204-.72-1.368-1.08-2.892-1.08-4.572 0-1.704.36-3.228 1.08-4.572.744-1.368 1.74-2.448 2.988-3.24 1.272-.816 2.688-1.224 4.248-1.224 1.32 0 2.484.288 3.492.864a6.283 6.283 0 0 1 2.448 2.304c.6.984.9 2.1.9 3.348v4.968c0 1.248-.3 2.364-.9 3.348a6.282 6.282 0 0 1-2.412 2.34c-1.032.552-2.208.828-3.528.828Zm.648-3.744c1.464 0 2.64-.492 3.528-1.476.912-.984 1.368-2.244 1.368-3.78 0-1.032-.204-1.944-.612-2.736a4.404 4.404 0 0 0-1.728-1.836c-.72-.456-1.572-.684-2.556-.684-.96 0-1.812.228-2.556.684-.72.432-1.296 1.044-1.728 1.836-.408.792-.612 1.704-.612 2.736 0 1.032.204 1.944.612 2.736a5.004 5.004 0 0 0 1.728 1.872c.744.432 1.596.648 2.556.648Zm4.644 3.384v-4.644l.684-4.212-.684-4.176V15h3.96v17.28h-3.96ZM137.79 32.28V15h3.96v17.28h-3.96Zm11.484 0V21.984c0-1.152-.36-2.04-1.08-2.664-.72-.648-1.608-.972-2.664-.972-.72 0-1.368.144-1.944.432a3.357 3.357 0 0 0-1.332 1.26c-.336.528-.504 1.176-.504 1.944l-1.548-.864c0-1.32.288-2.46.864-3.42a5.978 5.978 0 0 1 2.34-2.232c.984-.552 2.088-.828 3.312-.828 1.224 0 2.328.264 3.312.792a5.978 5.978 0 0 1 2.34 2.232c.576.96.864 2.112.864 3.456v11.16h-3.96Zm11.484 0V21.984c0-1.152-.36-2.04-1.08-2.664-.72-.648-1.608-.972-2.664-.972-.696 0-1.332.144-1.908.432a3.299 3.299 0 0 0-1.368 1.26c-.336.528-.504 1.176-.504 1.944l-2.232-.864c.12-1.32.504-2.46 1.152-3.42a6.72 6.72 0 0 1 2.484-2.232c1.032-.552 2.16-.828 3.384-.828 1.248 0 2.376.264 3.384.792a6.17 6.17 0 0 1 2.412 2.232c.6.96.9 2.112.9 3.456v11.16h-3.96ZM128.387 32.64c-1.728 0-3.288-.384-4.68-1.152a9.02 9.02 0 0 1-3.276-3.24c-.792-1.368-1.188-2.904-1.188-4.608 0-1.704.396-3.228 1.188-4.572a8.828 8.828 0 0 1 3.204-3.24c1.368-.792 2.88-1.188 4.536-1.188 1.608 0 3.024.372 4.248 1.116a7.777 7.777 0 0 1 2.916 3.06c.72 1.296 1.08 2.772 1.08 4.428 0 .288-.024.588-.072.9a8.69 8.69 0 0 1-.144.972h-14.184v-3.24h12.132l-1.476 1.296c-.048-1.056-.252-1.944-.612-2.664a3.83 3.83 0 0 0-1.548-1.656c-.648-.384-1.452-.576-2.412-.576-1.008 0-1.884.216-2.628.648a4.404 4.404 0 0 0-1.728 1.836c-.408.768-.612 1.692-.612 2.772 0 1.08.216 2.028.648 2.844a4.687 4.687 0 0 0 1.836 1.908c.792.432 1.704.648 2.736.648.888 0 1.704-.156 2.448-.468a5.11 5.11 0 0 0 1.944-1.368l2.52 2.556a8.083 8.083 0 0 1-3.06 2.232 9.754 9.754 0 0 1-3.816.756ZM110.895 32.28V12.732c0-1.32.288-2.484.864-3.492a6.465 6.465 0 0 1 2.448-2.376c1.056-.576 2.268-.864 3.636-.864 1.056 0 1.956.18 2.7.54.744.36 1.44.876 2.088 1.548l-2.556 2.556a3.6 3.6 0 0 0-.936-.684c-.336-.168-.768-.252-1.296-.252-.96 0-1.704.264-2.232.792-.504.504-.756 1.236-.756 2.196V32.28h-3.96Zm-4.14-13.68V15h13.32v3.6h-13.32ZM96.672 32.64c-1.56 0-2.976-.396-4.248-1.188-1.248-.792-2.244-1.86-2.988-3.204-.72-1.368-1.08-2.892-1.08-4.572 0-1.704.36-3.228 1.08-4.572.744-1.368 1.74-2.448 2.988-3.24 1.272-.816 2.688-1.224 4.248-1.224 1.32 0 2.484.288 3.492.864a6.283 6.283 0 0 1 2.448 2.304c.6.984.9 2.1.9 3.348v4.968c0 1.248-.3 2.364-.9 3.348a6.282 6.282 0 0 1-2.412 2.34c-1.032.552-2.208.828-3.528.828Zm.648-3.744c1.464 0 2.64-.492 3.528-1.476.912-.984 1.368-2.244 1.368-3.78 0-1.032-.204-1.944-.612-2.736a4.403 4.403 0 0 0-1.728-1.836c-.72-.456-1.572-.684-2.556-.684-.96 0-1.812.228-2.556.684-.72.432-1.296 1.044-1.728 1.836-.408.792-.612 1.704-.612 2.736 0 1.032.204 1.944.612 2.736a5.004 5.004 0 0 0 1.728 1.872c.744.432 1.596.648 2.556.648Zm4.644 3.384v-4.644l.684-4.212-.684-4.176V15h3.96v17.28h-3.96ZM77.103 32.28V15h3.96v17.28h-3.96Zm3.96-9.612-1.368-.684c0-2.184.48-3.948 1.44-5.292.984-1.368 2.46-2.052 4.428-2.052.864 0 1.644.156 2.34.468.696.312 1.344.816 1.944 1.512l-2.592 2.664a2.73 2.73 0 0 0-1.044-.72c-.384-.144-.828-.216-1.332-.216-1.104 0-2.016.348-2.736 1.044-.72.696-1.08 1.788-1.08 3.276ZM65.396 39.84c-1.824 0-3.42-.336-4.788-1.008-1.368-.648-2.472-1.572-3.312-2.772l2.592-2.592c.696.864 1.488 1.512 2.376 1.944.888.432 1.956.648 3.204.648 1.56 0 2.796-.408 3.708-1.224.912-.792 1.368-1.884 1.368-3.276v-4.248l.684-3.816-.684-3.852V15h3.96v16.56c0 1.656-.384 3.096-1.152 4.32-.768 1.248-1.836 2.22-3.204 2.916-1.368.696-2.952 1.044-4.752 1.044Zm-.18-7.92c-1.536 0-2.928-.372-4.176-1.116-1.224-.768-2.196-1.812-2.916-3.132-.696-1.32-1.044-2.796-1.044-4.428 0-1.632.348-3.096 1.044-4.392.72-1.296 1.692-2.316 2.916-3.06 1.248-.768 2.64-1.152 4.176-1.152 1.368 0 2.568.276 3.6.828a6.029 6.029 0 0 1 2.412 2.304c.576.96.864 2.088.864 3.384v4.248c0 1.272-.3 2.4-.9 3.384a6.029 6.029 0 0 1-2.412 2.304c-1.032.552-2.22.828-3.564.828Zm.792-3.744c.96 0 1.8-.204 2.52-.612a4.162 4.162 0 0 0 1.656-1.692c.408-.744.612-1.608.612-2.592s-.204-1.836-.612-2.556a4.108 4.108 0 0 0-1.656-1.728c-.72-.408-1.56-.612-2.52-.612s-1.812.204-2.556.612a4.342 4.342 0 0 0-1.692 1.728c-.408.72-.612 1.572-.612 2.556 0 .96.204 1.812.612 2.556.408.744.972 1.32 1.692 1.728.744.408 1.596.612 2.556.612Z"/>
    <g filter="url(#a)">
        <path fill="url(#b)" d="M21.24 48C7.08 48 0 40.92 0 26.76v-5.52C0 7.08 7.08 0 21.24 0h5.52C40.92 0 48 7.08 48 21.24v5.52C48 40.92 40.92 48 26.76 48h-5.52Z"/>
    </g>
    <path stroke="url(#c)" d="M21.24 47.5c-7.003 0-12.163-1.75-15.576-5.164C2.25 38.923.5 33.763.5 26.76v-5.52c0-7.003 1.75-12.163 5.164-15.576C9.077 2.25 14.237.5 21.24.5h5.52c7.003 0 12.163 1.75 15.576 5.164C45.75 9.077 47.5 14.237 47.5 21.24v5.52c0 7.003-1.75 12.163-5.164 15.576C38.923 45.75 33.763 47.5 26.76 47.5h-5.52Z"/>
    <path fill="#fff" d="M23.481 24.649a9.741 9.741 0 0 1-2.398-.281l-1.324 1.3c.406.21.955.386 1.647.527.691.14 1.813.28 3.363.421 2.362.211 4.08.762 5.154 1.652 1.073.89 1.61 2.12 1.61 3.689 0 1.03-.287 2.002-.859 2.916-.573.937-1.455 1.687-2.648 2.249-1.193.585-2.72.878-4.58.878-2.53 0-4.57-.468-6.12-1.405C15.776 35.68 15 34.299 15 32.449c0-1.57.775-2.928 2.326-4.076a8.739 8.739 0 0 1-1.252-.668c-.334-.234-.812-.59-1.074-.848l3.292-3.93c-1.384-1.195-2.075-2.729-2.075-4.603 0-1.17.286-2.237.859-3.197.596-.96 1.431-1.722 2.505-2.284 1.073-.562 2.373-.843 3.9-.843 1.002 0 1.932.14 2.791.422H33v2.74l-3.042.211c.477.89.716 1.874.716 2.951 0 1.171-.286 2.237-.859 3.198-.573.96-1.407 1.721-2.505 2.283-1.073.563-2.35.844-3.829.844Zm0-3.444c.93 0 1.694-.245 2.29-.737.62-.492.93-1.195.93-2.108 0-.914-.31-1.617-.93-2.109-.596-.492-1.36-.738-2.29-.738-.978 0-1.765.246-2.362.738-.596.492-.894 1.195-.894 2.108 0 .914.298 1.617.894 2.109.597.491 1.384.737 2.362.737Zm-4.294 10.787c0 .867.405 1.51 1.217 1.932.835.445 1.849.668 3.041.668 1.145 0 2.076-.234 2.792-.703.715-.445 1.073-1.054 1.073-1.827 0-.632-.238-1.16-.716-1.58-.453-.422-1.371-.68-2.755-.774a28.944 28.944 0 0 1-2.72-.316c-.692.375-1.193.785-1.503 1.23-.286.445-.43.901-.43 1.37Z"/>
    <defs>
        <linearGradient id="b" x1="5.28" x2="40.32" y1="5.28" y2="41.76" gradientUnits="userSpaceOnUse">
            <stop stop-color="#4178E3"/>
            <stop offset="1" stop-color="#1554CF"/>
        </linearGradient>
        <linearGradient id="c" x1="11.28" x2="42" y1=".72" y2="45.6" gradientUnits="userSpaceOnUse">
            <stop offset=".196" stop-color="#548BF4"/>
            <stop offset=".721" stop-color="#0940AB"/>
        </linearGradient>
        <filter id="a" width="48" height="48" x="0" y="0" color-interpolation-filters="sRGB" filterUnits="userSpaceOnUse">
            <feFlood flood-opacity="0" result="BackgroundImageFix"/>
            <feBlend in="SourceGraphic" in2="BackgroundImageFix" result="shape"/>
            <feColorMatrix in="SourceAlpha" result="hardAlpha" values="0 0 0 0 0 0 0 0 0 0 0 0 0 0 0 0 0 0 127 0"/>
            <feOffset/>
            <feGaussianBlur stdDeviation="12"/>
            <feComposite in2="hardAlpha" k2="-1" k3="1" operator="arithmetic"/>
            <feColorMatrix values="0 0 0 0 0 0 0 0 0 0 0 0 0 0 0 0 0 0 0.2 0"/>
            <feBlend in2="shape" result="effect1_innerShadow_192_334"/>
        </filter>
    </defs>
</svg>